# xmcd
#
# Track frame offsets:
# 150
# 18053
# 42291
# 57485
# 72639
# 89076
# 105489
# 120419
# 140929
# 154599
# 169292
# 183419
# 195098
# 214768
# 250091
# 268023
# 284744
# 302227
# 329048
#
# Disc length: 4749 seconds
#
#
# Revision: 0
# Processed by: cddbd v1.5.1PL0 Copyright (c) Steve Scherf et al.
# Submitted via: FreeRIP 2.90 
#
DISCID=23128b13
DTITLE=Roland Van Campenhout - Lime and Coconut
DYEAR=2004
DGENRE=Blues
TTITLE0=Going Down Slow
TTITLE1=Lime In the Coconut
TTITLE2=The Spider And The Fly
TTITLE3=Blues Wearing High Heels Shoes
TTITLE4=Rubber Burning
TTITLE5=That's Amore
TTITLE6=Good Times, Bad Times
TTITLE7=Kosher Kamasutra
TTITLE8=Alberta
TTITLE9=Bird In My Pyjamas
TTITLE10=Baby Call My Name
TTITLE11=Do It!
TTITLE12=Hash Bamboo Shuffle
TTITLE13=Rubber Burning
TTITLE14=Little Lisa Jane
TTITLE15=One Way Ticket To The Blues
TTITLE16=Hit The Road Jack
TTITLE17=Ca Plane Pour Moi
TTITLE18=Data Track
EXTD=
EXTT0=
EXTT1=
EXTT2=
EXTT3=
EXTT4=
EXTT5=
EXTT6=
EXTT7=
EXTT8=
EXTT9=
EXTT10=
EXTT11=
EXTT12=
EXTT13=
EXTT14=
EXTT15=
EXTT16=
EXTT17=
EXTT18=
PLAYORDER=
